<svg width="11" height="8" viewBox="0 0 11 8" fill="none" xmlns="http://www.w3.org/2000/svg">
<path d="M6.51967 7.61458C6.38484 7.47975 6.32012 7.31683 6.32552 7.12582C6.33091 6.93481 6.40125 6.77189 6.53653 6.63706L8.44102 4.73257H0.924174C0.733163 4.73257 0.572939 4.66785 0.443501 4.53841C0.314063 4.40897 0.249568 4.24897 0.250018 4.05841C0.250018 3.8674 0.314737 3.70717 0.444175 3.57774C0.573613 3.4483 0.733612 3.3838 0.924174 3.38425H8.44102L6.51967 1.46291C6.38484 1.32808 6.31743 1.16785 6.31743 0.982234C6.31743 0.796616 6.38484 0.636616 6.51967 0.502235C6.6545 0.367403 6.81473 0.299988 7.00035 0.299988C7.18596 0.299988 7.34596 0.367403 7.48035 0.502235L10.5646 3.5865C10.632 3.65392 10.6799 3.72695 10.7082 3.8056C10.7365 3.88425 10.7505 3.96852 10.75 4.05841C10.75 4.1483 10.7358 4.23257 10.7075 4.31122C10.6792 4.38987 10.6316 4.4629 10.5646 4.53032L7.46349 7.63144C7.3399 7.75503 7.18551 7.81683 7.00035 7.81683C6.81518 7.81683 6.65495 7.74942 6.51967 7.61458Z" fill="black"/>
</svg>
