<svg width="10" height="6" viewBox="0 0 10 6" fill="none" xmlns="http://www.w3.org/2000/svg">
<path d="M5 5.47918C4.88889 5.47918 4.78112 5.45834 4.67667 5.41668C4.57223 5.37501 4.48556 5.31945 4.41667 5.25001L0.583338 1.41668C0.43056 1.2639 0.354172 1.06945 0.354172 0.833343C0.354172 0.597232 0.43056 0.402788 0.583338 0.25001C0.736116 0.0972321 0.930561 0.0208435 1.16667 0.0208435C1.40278 0.0208435 1.59723 0.0972321 1.75001 0.25001L5 3.50001L8.25 0.25001C8.40278 0.0972321 8.59723 0.0208435 8.83334 0.0208435C9.06945 0.0208435 9.26389 0.0972321 9.41667 0.25001C9.56945 0.402788 9.64584 0.597232 9.64584 0.833343C9.64584 1.06945 9.56945 1.2639 9.41667 1.41668L5.58334 5.25001C5.5 5.33334 5.40973 5.39251 5.3125 5.42751C5.21528 5.46251 5.11112 5.47973 5 5.47918Z" fill="black"/>
</svg>
