<svg width="30" height="30" viewBox="0 0 30 30" fill="none" xmlns="http://www.w3.org/2000/svg">
<rect width="30" height="30" rx="15" fill="#D9D9D9"/>
<path d="M14.4105 7.84746C13.6668 7.9387 12.8373 8.21698 12.1699 8.60247C11.245 9.13394 10.5037 9.91177 9.98648 10.8903C9.52645 11.7639 9.33337 12.5281 9.33337 13.4793C9.33337 16.0613 10.8207 18.7347 12.9469 19.9687C13.4141 20.2401 13.7597 20.3724 14.2079 20.45C14.5392 20.507 15.4616 20.507 15.8049 20.45C16.079 20.4067 16.4604 20.288 16.6797 20.1831C18.7725 19.1749 20.3147 16.8757 20.6364 14.289C20.6865 13.883 20.6722 12.9911 20.6102 12.5965C20.5101 11.9601 20.348 11.4743 20.0572 10.9245C19.7307 10.3109 19.3898 9.8479 18.9512 9.43047C18.0669 8.58194 16.8584 8.01625 15.5951 7.85658C15.2948 7.82009 14.675 7.81552 14.4105 7.84746Z" fill="#1AD079"/>
<path d="M10.3729 20.0014C8.92668 20.5639 8.25522 20.8554 7.39735 21.295C5.82086 22.1034 5.00791 22.7115 4.7272 23.299C4.50936 23.7499 4.13208 25.0207 4.02654 25.6424C3.97938 25.9294 3.99285 26.1115 4.08492 26.3666C4.62165 27.8674 7.49167 29.1176 11.5407 29.6164C13.3754 29.8418 15.4617 29.8874 17.3234 29.7439C21.0648 29.4524 24.1841 28.4367 25.4439 27.0976C25.902 26.6103 26.0592 26.1821 25.9806 25.6219C25.9245 25.2348 25.6168 24.1416 25.4215 23.6406C25.2598 23.2284 25.1318 23.0235 24.8802 22.7638C24.4378 22.3084 23.8068 21.9121 22.4212 21.2153C21.3926 20.7006 20.8604 20.466 19.7982 20.0629L19.1716 19.8261L18.8774 20.1062C18.3969 20.5594 18.0106 20.8532 17.548 21.1196C17.0652 21.3952 16.4296 21.6366 15.967 21.7185C15.6212 21.78 14.9789 21.8005 14.5387 21.7641C13.7729 21.7003 13.3507 21.5796 12.6815 21.2358C12.1448 20.9579 11.6822 20.6254 11.141 20.1244C10.9635 19.9604 10.8176 19.8261 10.8153 19.8284C10.8131 19.8284 10.6132 19.9081 10.3729 20.0014Z" fill="#1AD079"/>
</svg>
